# xmcd CD database file
#
# Track frame offsets:
#	150
#	16105
#	33324
#	48525
#	64523
#	81572
#	100326
#	116543
#	131876
#	147906
#	160870
#	175048
#	192464
#	210526
#	230235
#	246906
#	265459
#	280971
#	298025
#	315048
#	331442
#
# Disc length: 4663 seconds
#
# Revision: 0
# Processed by: cddbd v1.5.1PL0 Copyright (c) Steve Scherf et al.
# Submitted via: CDex 1.51
#
DISCID=3b123515
DTITLE=promo only - May 05
DYEAR=2005
DGENRE=Rhythmic Soul
TTITLE0=Toma/Lil' Jon
TTITLE1=One Word/Kelly Osbourne
TTITLE2=1 Thing/Amerie F./Jay Z and Eve
TTITLE3=Here I am/David Morales ft.Tamra Keenan
TTITLE4=Switch/Will Smith ft. Elephant man
TTITLE5=I want You/Paris Avenue ft.Robin One
TTITLE6=Still Tippin'/Mike Jones ft.SlimThug and Paul Jones
TTITLE7=Adagio For Strings/Tiesto
TTITLE8=Girl/Destiny's Child
TTITLE9=50Ways to Leave Your Lover/Plummet
TTITLE10=Shivers/Armin Van Buuren
TTITLE11=Signs - Snoop Dogg ft.Charlie Wilson and Justin Timberlake
TTITLE12=And She Said/Lucas Prata
TTITLE13=Give Me That - Webbie ft.Bun B.
TTITLE14=Runaway - Lovesky ft.Michael Simone
TTITLE15=So What The Fuss/Stevie Wonder
TTITLE16=You Turn It On/Jim Verraros
TTITLE17=How To Deal/Frankie J.
TTITLE18=Come Rain,ComeShine/Jenn Cunetta
TTITLE19=What If/Ronny V. ft.Nanda
TTITLE20=Coca Cola Shape/Sasha ft.Fatman Scoop
EXTD=YEAR: 2005
EXTT0=
EXTT1=
EXTT2=
EXTT3=
EXTT4=
EXTT5=
EXTT6=
EXTT7=
EXTT8=
EXTT9=
EXTT10=
EXTT11=
EXTT12=
EXTT13=
EXTT14=
EXTT15=
EXTT16=
EXTT17=
EXTT18=
EXTT19=
EXTT20=
PLAYORDER=
